<?xml version="1.0" encoding="UTF-8" standalone="no"?><!-- Generator: Gravit.io --><svg xmlns="http://www.w3.org/2000/svg" xmlns:xlink="http://www.w3.org/1999/xlink" style="isolation:isolate" viewBox="0 0 963.78 354.331" width="963.78pt" height="354.331pt"><g><path d=" M 229.506 19.668 C 229.402 23.569 232.49 26.318 236.165 28.194 C 242.007 30.065 245.097 26.934 249.718 28.194 C 259.641 30.899 261.791 40.163 266.074 47.948 Q 277.401 68.535 264.672 110.746 L 285.234 110.746 Q 287.616 78.266 282.898 61.256 C 278.443 45.196 276.5 28.415 260.933 18.732 C 253.248 13.953 244.949 7.881 236.165 11.559 C 232.101 13.26 229.606 15.913 229.506 19.668 Z " fill="rgb(158,189,23)" vector-effect="non-scaling-stroke" stroke-width="3" stroke="rgb(71,71,71)" stroke-linejoin="miter" stroke-linecap="square" stroke-miterlimit="3"/><g><path d=" M 265.307 288.512 C 259.079 258.763 280.599 231.398 299.435 231.398 C 318.271 231.398 341.63 260.028 333.563 288.512 C 325.632 316.515 303.201 345.626 299.435 345.903 C 295.416 346.199 271.111 316.237 265.307 288.512 Z " fill="rgb(158,189,23)" vector-effect="non-scaling-stroke" stroke-width="3" stroke="rgb(71,71,71)" stroke-linejoin="miter" stroke-linecap="square" stroke-miterlimit="3"/></g><g><path d=" M 217.068 284.353 C 210.84 254.604 232.36 227.239 251.196 227.239 C 270.032 227.239 293.392 255.869 285.324 284.353 C 277.393 312.356 254.962 341.467 251.196 341.745 C 247.177 342.041 222.872 312.079 217.068 284.353 Z " fill="rgb(158,189,23)" vector-effect="non-scaling-stroke" stroke-width="3" stroke="rgb(71,71,71)" stroke-linejoin="miter" stroke-linecap="square" stroke-miterlimit="3"/></g><g><path d=" M 221.152 227.133 C 229.211 197.734 209.417 169.356 190.61 168.433 C 171.803 167.51 146.707 194.951 153 223.788 C 159.186 252.137 179.781 282.303 183.524 282.765 C 187.519 283.257 213.641 254.532 221.152 227.133 Z " fill="rgb(158,189,23)" vector-effect="non-scaling-stroke" stroke-width="3" stroke="rgb(71,71,71)" stroke-linejoin="miter" stroke-linecap="square" stroke-miterlimit="3"/></g><g><path d=" M 182.928 262.173 C 176.7 232.424 198.22 205.059 217.056 205.059 C 235.892 205.059 259.252 233.689 251.184 262.173 C 243.253 290.176 220.822 319.287 217.056 319.565 C 213.037 319.86 188.732 289.899 182.928 262.173 Z " fill="rgb(158,189,23)" vector-effect="non-scaling-stroke" stroke-width="3" stroke="rgb(71,71,71)" stroke-linejoin="miter" stroke-linecap="square" stroke-miterlimit="3"/></g><g><path d=" M 255.224 201.92 C 265.519 173.079 247.948 143.565 229.255 141.502 C 210.563 139.438 183.42 165.291 187.487 194.443 C 191.484 223.101 209.718 254.448 213.417 255.136 C 217.364 255.87 245.629 228.798 255.224 201.92 Z " fill="rgb(158,189,23)" vector-effect="non-scaling-stroke" stroke-width="3" stroke="rgb(71,71,71)" stroke-linejoin="miter" stroke-linecap="square" stroke-miterlimit="3"/></g><g><path d=" M 187.306 120.584 C 205.941 95.272 242.755 88.769 256.353 100.368 C 269.952 111.967 264.554 147.02 236.582 162.616 C 209.083 177.948 170.253 185.151 167.319 183.033 C 164.187 180.771 169.938 144.174 187.306 120.584 Z " fill="rgb(158,189,23)" vector-effect="non-scaling-stroke" stroke-width="3" stroke="rgb(71,71,71)" stroke-linejoin="miter" stroke-linecap="square" stroke-miterlimit="3"/></g><g><path d=" M 298.201 262.173 C 291.973 232.424 313.493 205.059 332.329 205.059 C 351.165 205.059 374.524 233.689 366.457 262.173 C 358.526 290.176 336.094 319.287 332.329 319.565 C 328.31 319.86 304.005 289.899 298.201 262.173 Z " fill="rgb(158,189,23)" vector-effect="non-scaling-stroke" stroke-width="3" stroke="rgb(71,71,71)" stroke-linejoin="miter" stroke-linecap="square" stroke-miterlimit="3"/></g><g><path d=" M 330.977 222.697 C 322.918 193.298 342.712 164.92 361.519 163.997 C 380.326 163.074 405.422 190.515 399.13 219.352 C 392.944 247.701 372.348 277.867 368.605 278.329 C 364.61 278.821 338.488 250.096 330.977 222.697 Z " fill="rgb(158,189,23)" vector-effect="non-scaling-stroke" stroke-width="3" stroke="rgb(71,71,71)" stroke-linejoin="miter" stroke-linecap="square" stroke-miterlimit="3"/></g><g><path d=" M 295.951 201.92 C 285.655 173.079 303.227 143.565 321.919 141.502 C 340.612 139.438 367.754 165.291 363.688 194.443 C 359.69 223.101 341.456 254.448 337.758 255.136 C 333.81 255.87 305.546 228.798 295.951 201.92 Z " fill="rgb(158,189,23)" vector-effect="non-scaling-stroke" stroke-width="3" stroke="rgb(71,71,71)" stroke-linejoin="miter" stroke-linecap="square" stroke-miterlimit="3"/></g><g><path d=" M 239.318 237.646 C 233.09 207.897 254.61 180.532 273.446 180.532 C 292.282 180.532 315.642 209.162 307.574 237.646 C 299.643 265.649 277.212 294.76 273.446 295.037 C 269.427 295.333 245.122 265.371 239.318 237.646 Z " fill="rgb(158,189,23)" vector-effect="non-scaling-stroke" stroke-width="3" stroke="rgb(71,71,71)" stroke-linejoin="miter" stroke-linecap="square" stroke-miterlimit="3"/></g><g><path d=" M 363.245 120.584 C 344.61 95.272 307.796 88.769 294.198 100.368 C 280.6 111.967 285.997 147.02 313.969 162.616 C 341.468 177.948 380.298 185.151 383.232 183.033 C 386.364 180.771 380.613 144.174 363.245 120.584 Z " fill="rgb(158,189,23)" vector-effect="non-scaling-stroke" stroke-width="3" stroke="rgb(71,71,71)" stroke-linejoin="miter" stroke-linecap="square" stroke-miterlimit="3"/></g><g><path d=" M 241.188 160.304 C 234.96 130.555 256.48 103.19 275.316 103.19 C 294.151 103.19 317.511 131.82 309.444 160.304 C 301.513 188.307 279.081 217.418 275.316 217.696 C 271.296 217.992 246.992 188.03 241.188 160.304 Z " fill="rgb(158,189,23)" vector-effect="non-scaling-stroke" stroke-width="3" stroke="rgb(71,71,71)" stroke-linejoin="miter" stroke-linecap="square" stroke-miterlimit="3"/></g></g><path d=" M 432.88 288.436 L 430.195 313.46 L 341.938 311.873 L 341.938 293.441 L 364.643 292.098 L 373.432 155.623 L 341.938 153.182 L 341.938 136.458 L 408.955 129.378 L 408.71 146.956 L 408.71 146.956 Q 412.006 144.027 416.279 141.341 L 416.279 141.341 L 416.279 141.341 Q 420.551 138.656 425.678 136.519 L 425.678 136.519 L 425.678 136.519 Q 430.805 134.383 436.909 133.162 L 436.909 133.162 L 436.909 133.162 Q 443.012 131.942 450.092 131.942 L 450.092 131.942 L 450.092 131.942 Q 455.219 131.942 461.567 133.101 L 461.567 133.101 L 461.567 133.101 Q 467.915 134.261 474.323 137.008 L 474.323 137.008 L 474.323 137.008 Q 480.732 139.754 486.774 144.393 L 486.774 144.393 L 486.774 144.393 Q 492.817 149.032 497.517 155.99 L 497.517 155.99 L 497.517 155.99 Q 502.216 162.948 505.085 172.469 L 505.085 172.469 L 505.085 172.469 Q 507.954 181.991 507.954 194.686 L 507.954 194.686 L 507.954 194.686 Q 507.954 207.625 505.085 217.452 L 505.085 217.452 L 505.085 217.452 Q 502.216 227.279 497.334 234.42 L 497.334 234.42 L 497.334 234.42 Q 492.451 241.561 485.981 246.322 L 485.981 246.322 L 485.981 246.322 Q 479.511 251.082 472.126 253.951 L 472.126 253.951 L 472.126 253.951 Q 464.741 256.82 456.928 257.979 L 456.928 257.979 L 456.928 257.979 Q 449.116 259.139 441.669 259.139 L 441.669 259.139 L 441.669 259.139 Q 435.688 259.139 429.585 258.04 L 429.585 258.04 L 429.585 258.04 Q 424.335 257.186 418.293 255.294 L 418.293 255.294 L 418.293 255.294 Q 412.251 253.402 407.124 249.862 L 407.124 249.862 L 406.635 289.901 L 432.88 288.436 L 432.88 288.436 Z  M 435.688 241.195 L 435.688 241.195 L 435.688 241.195 Q 443.134 241.195 448.75 236.922 L 448.75 236.922 L 448.75 236.922 Q 454.365 232.65 458.027 225.936 L 458.027 225.936 L 458.027 225.936 Q 461.689 219.222 463.52 211.226 L 463.52 211.226 L 463.52 211.226 Q 465.351 203.231 465.351 195.662 L 465.351 195.662 L 465.351 195.662 Q 465.351 188.094 463.703 179.854 L 463.703 179.854 L 463.703 179.854 Q 462.055 171.615 458.454 164.779 L 458.454 164.779 L 458.454 164.779 Q 454.853 157.943 449.116 153.548 L 449.116 153.548 L 449.116 153.548 Q 443.378 149.154 435.2 149.154 L 435.2 149.154 L 435.2 149.154 Q 430.805 149.398 426.167 151.473 L 426.167 151.473 L 426.167 151.473 Q 422.26 153.182 417.439 157.027 L 417.439 157.027 L 417.439 157.027 Q 412.617 160.872 408.1 167.953 L 408.1 167.953 L 407.368 228.621 L 407.368 228.621 Q 412.495 233.382 417.561 235.885 L 417.561 235.885 L 417.561 235.885 Q 422.627 238.387 426.655 239.608 L 426.655 239.608 L 426.655 239.608 Q 431.416 240.951 435.688 241.195 Z  M 631.733 128.402 L 657.246 133.407 L 645.161 174.911 L 645.161 174.911 Q 639.179 171.737 631.855 168.685 L 631.855 168.685 L 631.855 168.685 Q 624.531 165.633 616.779 163.314 L 616.779 163.314 L 616.779 163.314 Q 609.028 160.995 601.276 159.591 L 601.276 159.591 L 601.276 159.591 Q 593.525 158.187 586.689 158.187 L 586.689 158.187 L 586.689 158.187 Q 577.168 158.187 571.186 161.056 L 571.186 161.056 L 571.186 161.056 Q 565.205 163.924 565.205 169.417 L 565.205 169.417 L 565.205 169.417 Q 565.205 172.957 567.89 175.46 L 567.89 175.46 L 567.89 175.46 Q 570.576 177.962 576.008 180.16 L 576.008 180.16 L 576.008 180.16 Q 581.44 182.357 589.68 184.432 L 589.68 184.432 L 589.68 184.432 Q 597.919 186.507 608.906 189.193 L 608.906 189.193 L 608.906 189.193 Q 618.794 191.512 627.46 194.381 L 627.46 194.381 L 627.46 194.381 Q 636.127 197.249 642.475 201.644 L 642.475 201.644 L 642.475 201.644 Q 648.823 206.038 652.485 212.386 L 652.485 212.386 L 652.485 212.386 Q 656.147 218.734 656.147 227.889 L 656.147 227.889 L 656.147 227.889 Q 656.147 237.655 652.058 244.369 L 652.058 244.369 L 652.058 244.369 Q 647.968 251.082 640.644 255.294 L 640.644 255.294 L 640.644 255.294 Q 633.32 259.505 623.371 261.336 L 623.371 261.336 L 623.371 261.336 Q 613.422 263.167 601.704 263.167 L 601.704 263.167 L 601.704 263.167 Q 587.421 263.167 577.229 260.97 L 577.229 260.97 L 577.229 260.97 Q 567.036 258.773 560.383 256.148 L 560.383 256.148 L 560.383 256.148 Q 553.73 253.524 550.251 251.327 L 550.251 251.327 L 550.251 251.327 Q 546.772 249.129 545.918 249.129 L 545.918 249.129 L 543.476 268.905 L 517.719 260.116 L 531.635 220.443 L 531.635 220.443 Q 535.419 222.884 540.791 225.57 L 540.791 225.57 L 540.791 225.57 Q 546.162 228.255 552.265 230.941 L 552.265 230.941 L 552.265 230.941 Q 558.369 233.626 565.022 236.129 L 565.022 236.129 L 565.022 236.129 Q 571.674 238.631 578.144 240.523 L 578.144 240.523 L 578.144 240.523 Q 584.614 242.415 590.473 243.514 L 590.473 243.514 L 590.473 243.514 Q 596.333 244.613 600.971 244.613 L 600.971 244.613 L 600.971 244.613 Q 603.169 244.613 605.854 244.246 L 605.854 244.246 L 605.854 244.246 Q 608.54 243.88 610.92 242.843 L 610.92 242.843 L 610.92 242.843 Q 613.3 241.805 614.887 239.913 L 614.887 239.913 L 614.887 239.913 Q 616.474 238.021 616.474 234.847 L 616.474 234.847 L 616.474 234.847 Q 616.474 230.941 613.667 228.072 L 613.667 228.072 L 613.667 228.072 Q 610.859 225.203 606.831 223.128 L 606.831 223.128 L 606.831 223.128 Q 602.802 221.053 598.225 219.649 L 598.225 219.649 L 598.225 219.649 Q 593.647 218.245 589.985 217.147 L 589.985 217.147 L 589.985 217.147 Q 584.126 215.56 577.045 213.424 L 577.045 213.424 L 577.045 213.424 Q 569.965 211.287 562.641 208.419 L 562.641 208.419 L 562.641 208.419 Q 555.317 205.55 548.481 201.888 L 548.481 201.888 L 548.481 201.888 Q 541.645 198.226 536.274 193.465 L 536.274 193.465 L 536.274 193.465 Q 530.903 188.704 527.668 182.845 L 527.668 182.845 L 527.668 182.845 Q 524.433 176.986 524.433 169.661 L 524.433 169.661 L 524.433 169.661 Q 524.433 162.215 527.973 155.562 L 527.973 155.562 L 527.973 155.562 Q 531.513 148.91 538.288 143.905 L 538.288 143.905 L 538.288 143.905 Q 545.063 138.9 555.012 135.909 L 555.012 135.909 L 555.012 135.909 Q 564.96 132.918 577.656 132.918 L 577.656 132.918 L 577.656 132.918 Q 589.619 132.918 599.567 135.238 L 599.567 135.238 L 599.567 135.238 Q 609.516 137.557 616.84 140.365 L 616.84 140.365 L 616.84 140.365 Q 625.385 143.538 632.221 147.689 L 632.221 147.689 L 631.733 128.402 L 631.733 128.402 Z  M 724.506 211.41 L 724.506 211.41 L 724.506 211.41 Q 724.506 218.001 726.398 222.884 L 726.398 222.884 L 726.398 222.884 Q 728.291 227.767 731.586 231.002 L 731.586 231.002 L 731.586 231.002 Q 734.882 234.237 739.338 235.824 L 739.338 235.824 L 739.338 235.824 Q 743.794 237.411 748.92 237.411 L 748.92 237.411 L 748.92 237.411 Q 754.047 237.411 759.663 235.824 L 759.663 235.824 L 759.663 235.824 Q 765.278 234.237 770.771 231.063 L 770.771 231.063 L 770.771 231.063 Q 776.264 227.889 781.513 223.128 L 781.513 223.128 L 781.513 223.128 Q 786.762 218.368 791.279 212.142 L 791.279 212.142 L 791.279 212.142 Q 792.5 216.536 793.842 221.786 L 793.842 221.786 L 793.842 221.786 Q 795.063 226.302 796.589 232.223 L 796.589 232.223 L 796.589 232.223 Q 798.115 238.143 799.946 244.857 L 799.946 244.857 L 799.946 244.857 Q 792.622 250.35 785.542 253.89 L 785.542 253.89 L 785.542 253.89 Q 778.461 257.43 771.809 259.505 L 771.809 259.505 L 771.809 259.505 Q 765.156 261.58 759.052 262.374 L 759.052 262.374 L 759.052 262.374 Q 752.949 263.167 747.7 263.167 L 747.7 263.167 L 747.7 263.167 Q 734.028 263.167 724.567 259.566 L 724.567 259.566 L 724.567 259.566 Q 715.107 255.965 708.82 249.679 L 708.82 249.679 L 708.82 249.679 Q 702.534 243.392 699.055 234.908 L 699.055 234.908 L 699.055 234.908 Q 695.576 226.424 693.867 216.598 L 693.867 216.598 L 693.867 216.598 Q 692.158 206.771 691.792 196.09 L 691.792 196.09 L 691.792 196.09 Q 691.425 185.409 691.425 174.911 L 691.425 174.911 L 691.425 174.911 Q 691.425 172.225 691.547 168.807 L 691.547 168.807 L 691.547 168.807 Q 691.669 165.389 691.914 161.605 L 691.914 161.605 L 662.739 162.459 L 665.18 136.947 L 694.721 134.627 L 694.721 134.627 Q 695.942 124.251 697.346 114.364 L 697.346 114.364 L 697.346 114.364 Q 698.75 104.476 699.848 96.541 L 699.848 96.541 L 699.848 96.541 Q 701.191 87.264 702.412 78.963 L 702.412 78.963 L 741.962 81.893 L 741.962 81.893 Q 740.498 88.485 739.033 96.297 L 739.033 96.297 L 739.033 96.297 Q 737.69 103.011 736.042 111.983 L 736.042 111.983 L 736.042 111.983 Q 734.394 120.955 732.685 131.453 L 732.685 131.453 L 785.664 127.181 L 784.931 158.675 L 728.413 160.384 L 728.413 160.384 Q 726.582 174.056 725.544 187.057 L 725.544 187.057 L 725.544 187.057 Q 724.506 200.057 724.506 211.41 Z  M 867.939 230.941 L 905.537 230.453 L 905.537 250.96 L 811.543 262.923 L 808.002 231.673 L 839.252 231.429 L 840.717 163.68 L 802.753 160.872 L 802.753 140.12 L 881.733 133.162 L 877.705 160.384 L 877.705 160.384 Q 880.39 157.577 884.785 153.853 L 884.785 153.853 L 884.785 153.853 Q 889.179 150.13 894.489 146.285 L 894.489 146.285 L 894.489 146.285 Q 899.799 142.44 905.842 138.534 L 905.842 138.534 L 905.842 138.534 Q 911.884 134.627 917.988 131.392 L 917.988 131.392 L 917.988 131.392 Q 924.091 128.158 930.012 125.777 L 930.012 125.777 L 930.012 125.777 Q 935.932 123.397 940.937 122.42 L 940.937 122.42 L 944.233 162.948 L 944.233 162.948 Q 926.655 162.948 914.021 165.999 L 914.021 165.999 L 914.021 165.999 Q 901.386 169.051 892.963 172.713 L 892.963 172.713 L 892.963 172.713 Q 883.198 176.986 876.484 182.357 L 876.484 182.357 L 867.939 230.941 L 867.939 230.941 Z  M 73.994 236.19 L 102.07 234.847 L 99.751 261.214 L 16.01 260.604 L 16.01 238.387 L 41.279 237.411 L 39.57 101.424 L 13.569 102.401 L 13.569 82.625 L 82.05 78.597 L 78.266 151.717 L 78.266 151.717 Q 87.421 144.271 96.272 140.609 L 96.272 140.609 L 96.272 140.609 Q 105.122 136.947 111.958 135.482 L 111.958 135.482 L 111.958 135.482 Q 120.014 133.773 127.338 134.139 L 127.338 134.139 L 127.338 134.139 Q 139.545 134.139 148.151 137.496 L 148.151 137.496 L 148.151 137.496 Q 156.757 140.853 162.067 147.017 L 162.067 147.017 L 162.067 147.017 Q 167.377 153.182 169.819 161.727 L 169.819 161.727 L 169.819 161.727 Q 172.26 170.272 172.26 180.648 L 172.26 180.648 L 172.26 180.648 Q 172.26 196.639 170.856 210.86 L 170.856 210.86 L 170.856 210.86 Q 169.453 225.081 167.011 238.387 L 167.011 238.387 L 193.012 236.922 L 189.594 261.214 L 123.554 258.651 L 123.554 258.651 Q 124.897 247.664 126.179 237.716 L 126.179 237.716 L 126.179 237.716 Q 127.46 227.767 128.498 218.429 L 128.498 218.429 L 128.498 218.429 Q 129.536 209.09 130.146 200.24 L 130.146 200.24 L 130.146 200.24 Q 130.756 191.39 130.756 182.601 L 130.756 182.601 L 130.756 182.601 Q 130.756 177.108 129.902 172.286 L 129.902 172.286 L 129.902 172.286 Q 129.047 167.464 126.972 163.924 L 126.972 163.924 L 126.972 163.924 Q 124.897 160.384 121.418 158.248 L 121.418 158.248 L 121.418 158.248 Q 117.939 156.112 112.812 155.868 L 112.812 155.868 L 112.812 155.868 Q 108.173 156.112 102.558 158.065 L 102.558 158.065 L 102.558 158.065 Q 97.797 159.774 91.328 163.497 L 91.328 163.497 L 91.328 163.497 Q 84.858 167.22 77.29 174.178 L 77.29 174.178 L 73.994 236.19 L 73.994 236.19 Z " fill="rgb(0,0,0)"/><path d=" M 790.007 70.225 L 790.007 70.225 L 790.007 70.225 Q 789.499 72.469 788.195 74.054 L 788.195 74.054 L 788.195 74.054 Q 786.89 75.639 785.092 76.531 L 785.092 76.531 L 785.092 76.531 Q 783.294 77.422 781.16 77.581 L 781.16 77.581 L 781.16 77.581 Q 779.026 77.74 776.896 77.094 L 776.896 77.094 L 776.896 77.094 Q 778.574 77.535 779.874 78.475 L 779.874 78.475 L 779.874 78.475 Q 781.174 79.416 782.021 80.615 L 782.021 80.615 L 782.021 80.615 Q 782.867 81.814 783.21 83.11 L 783.21 83.11 L 783.21 83.11 Q 783.552 84.406 783.291 85.551 L 783.291 85.551 L 783.291 85.551 Q 782.846 87.496 781.861 88.698 L 781.861 88.698 L 781.861 88.698 Q 780.875 89.9 779.52 90.53 L 779.52 90.53 L 779.52 90.53 Q 778.164 91.16 776.545 91.311 L 776.545 91.311 L 776.545 91.311 Q 774.927 91.461 773.226 91.307 L 773.226 91.307 L 773.226 91.307 Q 771.526 91.153 769.85 90.786 L 769.85 90.786 L 769.85 90.786 Q 768.175 90.42 766.728 90.022 L 766.728 90.022 L 766.728 90.022 Q 763.835 89.227 761.506 88.548 L 761.506 88.548 L 761.506 88.548 Q 759.178 87.869 757.497 87.354 L 757.497 87.354 L 757.497 87.354 Q 755.523 86.754 753.984 86.256 L 753.984 86.256 L 753.984 86.256 Q 754.501 84.234 754.997 82.279 L 754.997 82.279 L 754.997 82.279 Q 755.218 81.44 755.443 80.542 L 755.443 80.542 L 755.443 80.542 Q 755.669 79.643 755.902 78.759 L 755.902 78.759 L 755.902 78.759 Q 756.136 77.875 756.353 77.047 L 756.353 77.047 L 756.353 77.047 Q 756.57 76.219 756.751 75.515 L 756.751 75.515 L 756.751 75.515 Q 757.08 74.22 757.478 72.602 L 757.478 72.602 L 757.478 72.602 Q 757.876 70.985 758.318 69.222 L 758.318 69.222 L 758.318 69.222 Q 758.759 67.458 759.213 65.65 L 759.213 65.65 L 759.213 65.65 Q 759.667 63.841 760.085 62.157 L 760.085 62.157 L 760.085 62.157 Q 761.07 58.196 762.113 54.032 L 762.113 54.032 L 762.113 54.032 Q 763.612 54.25 765.831 54.677 L 765.831 54.677 L 765.831 54.677 Q 767.729 55.036 770.597 55.665 L 770.597 55.665 L 770.597 55.665 Q 773.465 56.294 777.42 57.301 L 777.42 57.301 L 777.42 57.301 Q 778.783 57.649 780.367 58.246 L 780.367 58.246 L 780.367 58.246 Q 781.951 58.842 783.48 59.666 L 783.48 59.666 L 783.48 59.666 Q 785.01 60.491 786.367 61.57 L 786.367 61.57 L 786.367 61.57 Q 787.725 62.65 788.669 63.975 L 788.669 63.975 L 788.669 63.975 Q 789.613 65.3 790.01 66.869 L 790.01 66.869 L 790.01 66.869 Q 790.407 68.437 790.007 70.225 Z  M 783.601 69.504 L 783.601 69.504 L 783.601 69.504 Q 783.942 67.919 783.754 66.594 L 783.754 66.594 L 783.754 66.594 Q 783.567 65.27 782.958 64.177 L 782.958 64.177 L 782.958 64.177 Q 782.349 63.084 781.381 62.216 L 781.381 62.216 L 781.381 62.216 Q 780.414 61.348 779.243 60.676 L 779.243 60.676 L 779.243 60.676 Q 778.071 60.005 776.751 59.51 L 776.751 59.51 L 776.751 59.51 Q 775.43 59.015 774.112 58.68 L 774.112 58.68 L 774.112 58.68 Q 773.656 58.571 772.623 58.343 L 772.623 58.343 L 772.623 58.343 Q 771.591 58.115 770.485 57.89 L 770.485 57.89 L 770.485 57.89 Q 769.221 57.619 767.726 57.305 L 767.726 57.305 L 763.933 72.654 L 763.933 72.654 Q 764.83 72.842 765.952 73.096 L 765.952 73.096 L 765.952 73.096 Q 766.91 73.327 768.257 73.647 L 768.257 73.647 L 768.257 73.647 Q 769.605 73.966 771.238 74.394 L 771.238 74.394 L 771.238 74.394 Q 773.147 74.878 775.115 75.037 L 775.115 75.037 L 775.115 75.037 Q 777.083 75.196 778.801 74.745 L 778.801 74.745 L 778.801 74.745 Q 780.52 74.294 781.797 73.055 L 781.797 73.055 L 781.797 73.055 Q 783.074 71.816 783.601 69.504 Z  M 776.992 84.129 L 776.992 84.129 L 776.992 84.129 Q 777.352 82.476 776.823 81.235 L 776.823 81.235 L 776.823 81.235 Q 776.294 79.995 775.18 79.084 L 775.18 79.084 L 775.18 79.084 Q 774.066 78.173 772.532 77.53 L 772.532 77.53 L 772.532 77.53 Q 770.999 76.888 769.364 76.423 L 769.364 76.423 L 769.364 76.423 Q 767.73 75.959 766.163 75.636 L 766.163 75.636 L 766.163 75.636 Q 764.597 75.314 763.414 75.017 L 763.414 75.017 L 760.811 85.952 L 760.811 85.952 Q 761.736 86.296 762.841 86.691 L 762.841 86.691 L 762.841 86.691 Q 763.773 87.012 765.027 87.402 L 765.027 87.402 L 765.027 87.402 Q 766.28 87.792 767.711 88.16 L 767.711 88.16 L 767.711 88.16 Q 769.141 88.529 770.607 88.651 L 770.607 88.651 L 770.607 88.651 Q 772.073 88.773 773.353 88.402 L 773.353 88.402 L 773.353 88.402 Q 774.633 88.031 775.597 87.03 L 775.597 87.03 L 775.597 87.03 Q 776.56 86.029 776.992 84.129 Z  M 812.053 88.056 L 811.011 91.292 L 811.011 91.292 Q 810.016 90.856 808.861 90.421 L 808.861 90.421 L 808.861 90.421 Q 807.706 89.986 806.507 89.576 L 806.507 89.576 L 806.507 89.576 Q 805.308 89.165 804.122 88.795 L 804.122 88.795 L 804.122 88.795 Q 802.936 88.425 801.879 88.116 L 801.879 88.116 L 801.879 88.116 Q 800.866 87.821 799.867 87.566 L 799.867 87.566 L 799.867 87.566 Q 798.867 87.311 797.841 87.061 L 797.841 87.061 L 797.841 87.061 Q 797.421 88.501 797.067 89.716 L 797.067 89.716 L 797.067 89.716 Q 796.712 90.931 796.394 92.022 L 796.394 92.022 L 796.394 92.022 Q 796.076 93.113 795.785 94.151 L 795.785 94.151 L 795.785 94.151 Q 795.495 95.19 795.202 96.276 L 795.202 96.276 L 795.202 96.276 Q 796.459 96.57 798.091 96.875 L 798.091 96.875 L 798.091 96.875 Q 799.724 97.18 801.518 97.471 L 801.518 97.471 L 801.518 97.471 Q 803.313 97.763 805.191 97.981 L 805.191 97.981 L 805.191 97.981 Q 807.068 98.199 808.87 98.297 L 808.87 98.297 L 808.87 98.297 Q 810.673 98.396 812.291 98.331 L 812.291 98.331 L 812.291 98.331 Q 813.909 98.266 815.16 97.996 L 815.16 97.996 L 813.622 103.602 L 788.332 96.226 L 798.579 64.107 L 823.875 71.045 L 821.636 77.131 L 821.636 77.131 Q 820.875 76.225 819.545 75.3 L 819.545 75.3 L 819.545 75.3 Q 818.216 74.375 816.584 73.484 L 816.584 73.484 L 816.584 73.484 Q 814.951 72.593 813.121 71.754 L 813.121 71.754 L 813.121 71.754 Q 811.291 70.915 809.509 70.2 L 809.509 70.2 L 809.509 70.2 Q 807.728 69.485 806.152 68.903 L 806.152 68.903 L 806.152 68.903 Q 804.576 68.322 803.419 67.936 L 803.419 67.936 L 798.491 84.833 L 798.761 84.912 L 798.761 84.912 Q 800.291 85.358 801.969 85.799 L 801.969 85.799 L 801.969 85.799 Q 803.647 86.239 805.372 86.645 L 805.372 86.645 L 805.372 86.645 Q 807.097 87.05 808.787 87.409 L 808.787 87.409 L 808.787 87.409 Q 810.477 87.767 812.053 88.056 L 812.053 88.056 L 812.053 88.056 Z  M 825.765 72.182 L 855.585 80.685 L 854.035 84.993 L 854.035 84.993 Q 853.006 84.254 851.556 83.574 L 851.556 83.574 L 851.556 83.574 Q 850.106 82.895 848.548 82.294 L 848.548 82.294 L 848.548 82.294 Q 846.99 81.693 845.473 81.202 L 845.473 81.202 L 845.473 81.202 Q 843.956 80.711 842.741 80.356 L 842.741 80.356 L 842.133 80.179 L 834.881 109.9 L 827.973 107.885 L 837.275 79.006 L 837.275 79.006 Q 835.571 78.656 833.758 78.383 L 833.758 78.383 L 833.758 78.383 Q 831.946 78.111 830.235 77.991 L 830.235 77.991 L 830.235 77.991 Q 828.525 77.87 827.014 77.942 L 827.014 77.942 L 827.014 77.942 Q 825.504 78.015 824.427 78.36 L 824.427 78.36 L 825.765 72.182 L 825.765 72.182 Z  M 874.456 85.041 L 874.456 85.041 L 874.456 85.041 Q 877.516 85.934 879.521 87.678 L 879.521 87.678 L 879.521 87.678 Q 881.527 89.423 882.686 91.726 L 882.686 91.726 L 882.686 91.726 Q 883.846 94.03 884.289 96.735 L 884.289 96.735 L 884.289 96.735 Q 884.733 99.44 884.65 102.236 L 884.65 102.236 L 884.65 102.236 Q 884.567 105.031 884.071 107.78 L 884.071 107.78 L 884.071 107.78 Q 883.575 110.528 882.879 112.913 L 882.879 112.913 L 882.879 112.913 Q 882.269 115.006 881.441 116.839 L 881.441 116.839 L 881.441 116.839 Q 880.613 118.673 879.858 120.089 L 879.858 120.089 L 879.858 120.089 Q 878.964 121.732 878.039 123.147 L 878.039 123.147 L 871.576 119.943 L 871.576 119.943 Q 872.681 118.581 873.832 116.768 L 873.832 116.768 L 873.832 116.768 Q 874.983 114.956 876.037 113.017 L 876.037 113.017 L 876.037 113.017 Q 873.387 111.976 870.695 111.117 L 870.695 111.117 L 870.695 111.117 Q 868.004 110.259 865.326 109.478 L 865.326 109.478 L 865.326 109.478 Q 863.234 108.868 861.135 108.28 L 861.135 108.28 L 861.135 108.28 Q 859.036 107.692 856.881 107.21 L 856.881 107.21 L 856.881 107.21 Q 856.773 109.254 856.823 111.344 L 856.823 111.344 L 856.823 111.344 Q 856.873 113.433 857.076 115.666 L 857.076 115.666 L 849.586 114.897 L 849.586 114.897 Q 849.392 113.717 849.388 112.227 L 849.388 112.227 L 849.388 112.227 Q 849.391 110.958 849.599 109.2 L 849.599 109.2 L 849.599 109.2 Q 849.807 107.442 850.424 105.327 L 850.424 105.327 L 850.424 105.327 Q 851.231 102.559 852.323 99.692 L 852.323 99.692 L 852.323 99.692 Q 853.416 96.825 854.871 94.222 L 854.871 94.222 L 854.871 94.222 Q 856.326 91.619 858.213 89.459 L 858.213 89.459 L 858.213 89.459 Q 860.101 87.3 862.505 85.962 L 862.505 85.962 L 862.505 85.962 Q 864.909 84.625 867.871 84.305 L 867.871 84.305 L 867.871 84.305 Q 870.833 83.985 874.456 85.041 Z  M 858.585 97.771 L 858.585 97.771 L 858.585 97.771 Q 858.04 99.638 857.666 101.421 L 857.666 101.421 L 857.666 101.421 Q 857.293 103.204 857.093 104.977 L 857.093 104.977 L 857.093 104.977 Q 859.304 105.768 861.536 106.444 L 861.536 106.444 L 861.536 106.444 Q 863.768 107.119 866.063 107.789 L 866.063 107.789 L 866.063 107.789 Q 868.786 108.583 871.552 109.353 L 871.552 109.353 L 871.552 109.353 Q 874.318 110.123 877.167 110.734 L 877.167 110.734 L 877.167 110.734 Q 878.3 108.355 878.943 106.15 L 878.943 106.15 L 878.943 106.15 Q 879.409 104.552 879.698 102.683 L 879.698 102.683 L 879.698 102.683 Q 879.987 100.815 879.984 98.897 L 879.984 98.897 L 879.984 98.897 Q 879.982 96.98 879.633 95.121 L 879.633 95.121 L 879.633 95.121 Q 879.285 93.261 878.45 91.687 L 878.45 91.687 L 878.45 91.687 Q 877.615 90.113 876.264 88.926 L 876.264 88.926 L 876.264 88.926 Q 874.914 87.738 872.934 87.161 L 872.934 87.161 L 872.934 87.161 Q 871.111 86.629 869.478 86.788 L 869.478 86.788 L 869.478 86.788 Q 867.845 86.946 866.391 87.621 L 866.391 87.621 L 866.391 87.621 Q 864.937 88.295 863.703 89.388 L 863.703 89.388 L 863.703 89.388 Q 862.469 90.481 861.486 91.842 L 861.486 91.842 L 861.486 91.842 Q 860.503 93.203 859.767 94.722 L 859.767 94.722 L 859.767 94.722 Q 859.031 96.241 858.585 97.771 Z " fill="rgb(255,153,0)"/></svg>